<svg xmlns="http://www.w3.org/2000/svg" xmlns:xlink="http://www.w3.org/1999/xlink" width="1080" zoomAndPan="magnify" viewBox="0 0 810 1012.49997" height="1350" preserveAspectRatio="xMidYMid meet" version="1.0"><defs><g/></defs><g fill="#000000" fill-opacity="1"><g transform="translate(248.573336, 580.620107)"><g><path d="M 119.078125 -7.515625 C 119.671875 -5.453125 120.332031 -3.351562 121.0625 -1.21875 C 121.800781 0.914062 122.984375 3.015625 124.609375 5.078125 C 126.078125 3.609375 127.363281 2.0625 128.46875 0.4375 C 129.570312 -1.175781 130.566406 -2.796875 131.453125 -4.421875 C 143.234375 -26.367188 153.101562 -49.269531 161.0625 -73.125 C 161.351562 -74.007812 161.648438 -75.039062 161.953125 -76.21875 C 162.535156 -78.425781 163.929688 -79.238281 166.140625 -78.65625 C 166.878906 -78.363281 167.578125 -78.175781 168.234375 -78.09375 C 168.898438 -78.019531 169.601562 -77.910156 170.34375 -77.765625 C 172.988281 -77.179688 174.019531 -75.488281 173.4375 -72.6875 C 172.695312 -70.039062 171.921875 -67.351562 171.109375 -64.625 C 170.304688 -61.894531 169.460938 -59.207031 168.578125 -56.5625 C 165.191406 -46.988281 161.546875 -37.488281 157.640625 -28.0625 C 153.734375 -18.632812 149.570312 -9.28125 145.15625 0 C 144.269531 1.769531 143.347656 3.5 142.390625 5.1875 C 141.429688 6.882812 140.363281 8.539062 139.1875 10.15625 C 136.09375 13.84375 132.117188 15.832031 127.265625 16.125 C 121.078125 16.414062 115.660156 15.382812 111.015625 13.03125 C 106.378906 10.675781 102.515625 6.703125 99.421875 1.109375 C 95.296875 -6.992188 91.757812 -15.242188 88.8125 -23.640625 C 85.863281 -32.035156 83.363281 -40.578125 81.3125 -49.265625 C 79.832031 -55.304688 78.578125 -61.34375 77.546875 -67.375 C 76.515625 -73.414062 75.628906 -79.457031 74.890625 -85.5 C 74.597656 -88.15625 74.191406 -89.738281 73.671875 -90.25 C 73.160156 -90.769531 71.507812 -91.175781 68.71875 -91.46875 C 66.945312 -91.613281 65.210938 -91.757812 63.515625 -91.90625 C 61.828125 -92.050781 60.097656 -92.203125 58.328125 -92.359375 C 55.828125 -92.648438 54.28125 -92.609375 53.6875 -92.234375 C 53.09375 -91.867188 52.359375 -90.507812 51.484375 -88.15625 C 48.390625 -79.613281 45.40625 -70.992188 42.53125 -62.296875 C 39.65625 -53.609375 36.820312 -44.847656 34.03125 -36.015625 C 32.40625 -30.710938 30.78125 -25.375 29.15625 -20 C 27.539062 -14.625 25.847656 -9.207031 24.078125 -3.75 C 23.347656 -1.101562 22.613281 1.25 21.875 3.3125 C 19.8125 8.613281 16.273438 9.863281 11.265625 7.0625 C 10.085938 6.332031 9.644531 5.453125 9.9375 4.421875 C 10.082031 3.679688 10.265625 2.90625 10.484375 2.09375 C 10.710938 1.289062 10.898438 0.445312 11.046875 -0.4375 C 15.316406 -15.164062 19.734375 -29.894531 24.296875 -44.625 C 28.867188 -59.351562 33.953125 -73.9375 39.546875 -88.375 C 39.691406 -88.8125 39.875 -89.285156 40.09375 -89.796875 C 40.320312 -90.316406 40.507812 -90.800781 40.65625 -91.25 C 41.238281 -92.863281 40.570312 -93.820312 38.65625 -94.125 C 31.738281 -95.15625 24.960938 -95.335938 18.328125 -94.671875 C 11.703125 -94.003906 5.296875 -91.832031 -0.890625 -88.15625 C -1.617188 -87.707031 -2.390625 -87.300781 -3.203125 -86.9375 C -4.015625 -86.570312 -4.863281 -86.164062 -5.75 -85.71875 C -7.507812 -84.832031 -9.238281 -84.425781 -10.9375 -84.5 C -12.632812 -84.582031 -14.363281 -84.914062 -16.125 -85.5 C -18.78125 -86.238281 -19.222656 -87.640625 -17.453125 -89.703125 C -16.128906 -91.316406 -14.582031 -92.710938 -12.8125 -93.890625 C -4.125 -100.234375 5.519531 -103.769531 16.125 -104.5 C 20.101562 -104.789062 24.117188 -104.898438 28.171875 -104.828125 C 32.222656 -104.753906 36.3125 -104.351562 40.4375 -103.625 C 43.675781 -103.175781 45.882812 -104.425781 47.0625 -107.375 C 51.332031 -118.863281 55.785156 -130.238281 60.421875 -141.5 C 65.066406 -152.769531 69.375 -164.148438 73.34375 -175.640625 C 73.9375 -177.117188 74.378906 -178.519531 74.671875 -179.84375 C 75.847656 -183.375 76.804688 -185.472656 77.546875 -186.140625 C 78.285156 -186.804688 80.492188 -187.140625 84.171875 -187.140625 C 87.859375 -187.140625 90.398438 -187.097656 91.796875 -187.015625 C 93.191406 -186.941406 94.070312 -186.242188 94.4375 -184.921875 C 94.8125 -183.597656 95.144531 -181.019531 95.4375 -177.1875 C 96.46875 -164.96875 97.5 -152.78125 98.53125 -140.625 C 99.5625 -128.476562 100.59375 -116.363281 101.625 -104.28125 C 101.625 -103.84375 101.695312 -103.363281 101.84375 -102.84375 C 102 -102.332031 102.078125 -101.78125 102.078125 -101.1875 C 102.222656 -98.382812 103.84375 -96.910156 106.9375 -96.765625 C 110.320312 -96.765625 113.742188 -96.691406 117.203125 -96.546875 C 120.671875 -96.398438 124.097656 -96.472656 127.484375 -96.765625 C 128.660156 -96.910156 129.875 -96.984375 131.125 -96.984375 C 132.375 -96.984375 133.585938 -96.691406 134.765625 -96.109375 C 135.503906 -95.660156 136.128906 -95.21875 136.640625 -94.78125 C 137.160156 -94.34375 137.421875 -93.679688 137.421875 -92.796875 C 137.421875 -92.054688 137.160156 -91.5 136.640625 -91.125 C 136.128906 -90.757812 135.582031 -90.429688 135 -90.140625 C 134.257812 -89.703125 133.410156 -89.40625 132.453125 -89.25 C 131.492188 -89.101562 130.570312 -88.957031 129.6875 -88.8125 C 126.300781 -88.226562 122.875 -87.9375 119.40625 -87.9375 C 115.945312 -87.9375 112.523438 -88.007812 109.140625 -88.15625 C 106.640625 -88.15625 105.128906 -87.894531 104.609375 -87.375 C 104.097656 -86.863281 103.988281 -85.351562 104.28125 -82.84375 C 106.050781 -70.175781 108.003906 -57.546875 110.140625 -44.953125 C 112.273438 -32.367188 115.253906 -19.890625 119.078125 -7.515625 Z M 70.703125 -138.75 C 68.347656 -132.707031 66.023438 -126.703125 63.734375 -120.734375 C 61.453125 -114.773438 59.132812 -108.773438 56.78125 -102.734375 C 58.988281 -101.847656 61.085938 -101.296875 63.078125 -101.078125 C 65.066406 -100.859375 67.019531 -100.75 68.9375 -100.75 C 71 -100.601562 72.210938 -100.710938 72.578125 -101.078125 C 72.941406 -101.441406 73.050781 -102.726562 72.90625 -104.9375 C 72.46875 -109.800781 72.210938 -114.738281 72.140625 -119.75 C 72.066406 -124.757812 72.03125 -129.765625 72.03125 -134.765625 C 72.03125 -135.359375 72.066406 -136.019531 72.140625 -136.75 C 72.210938 -137.488281 71.734375 -138.15625 70.703125 -138.75 Z M 70.703125 -138.75 "/></g></g></g><g fill="#000000" fill-opacity="1"><g transform="translate(404.992123, 580.620107)"><g><path d="M 119.078125 -7.515625 C 119.671875 -5.453125 120.332031 -3.351562 121.0625 -1.21875 C 121.800781 0.914062 122.984375 3.015625 124.609375 5.078125 C 126.078125 3.609375 127.363281 2.0625 128.46875 0.4375 C 129.570312 -1.175781 130.566406 -2.796875 131.453125 -4.421875 C 143.234375 -26.367188 153.101562 -49.269531 161.0625 -73.125 C 161.351562 -74.007812 161.648438 -75.039062 161.953125 -76.21875 C 162.535156 -78.425781 163.929688 -79.238281 166.140625 -78.65625 C 166.878906 -78.363281 167.578125 -78.175781 168.234375 -78.09375 C 168.898438 -78.019531 169.601562 -77.910156 170.34375 -77.765625 C 172.988281 -77.179688 174.019531 -75.488281 173.4375 -72.6875 C 172.695312 -70.039062 171.921875 -67.351562 171.109375 -64.625 C 170.304688 -61.894531 169.460938 -59.207031 168.578125 -56.5625 C 165.191406 -46.988281 161.546875 -37.488281 157.640625 -28.0625 C 153.734375 -18.632812 149.570312 -9.28125 145.15625 0 C 144.269531 1.769531 143.347656 3.5 142.390625 5.1875 C 141.429688 6.882812 140.363281 8.539062 139.1875 10.15625 C 136.09375 13.84375 132.117188 15.832031 127.265625 16.125 C 121.078125 16.414062 115.660156 15.382812 111.015625 13.03125 C 106.378906 10.675781 102.515625 6.703125 99.421875 1.109375 C 95.296875 -6.992188 91.757812 -15.242188 88.8125 -23.640625 C 85.863281 -32.035156 83.363281 -40.578125 81.3125 -49.265625 C 79.832031 -55.304688 78.578125 -61.34375 77.546875 -67.375 C 76.515625 -73.414062 75.628906 -79.457031 74.890625 -85.5 C 74.597656 -88.15625 74.191406 -89.738281 73.671875 -90.25 C 73.160156 -90.769531 71.507812 -91.175781 68.71875 -91.46875 C 66.945312 -91.613281 65.210938 -91.757812 63.515625 -91.90625 C 61.828125 -92.050781 60.097656 -92.203125 58.328125 -92.359375 C 55.828125 -92.648438 54.28125 -92.609375 53.6875 -92.234375 C 53.09375 -91.867188 52.359375 -90.507812 51.484375 -88.15625 C 48.390625 -79.613281 45.40625 -70.992188 42.53125 -62.296875 C 39.65625 -53.609375 36.820312 -44.847656 34.03125 -36.015625 C 32.40625 -30.710938 30.78125 -25.375 29.15625 -20 C 27.539062 -14.625 25.847656 -9.207031 24.078125 -3.75 C 23.347656 -1.101562 22.613281 1.25 21.875 3.3125 C 19.8125 8.613281 16.273438 9.863281 11.265625 7.0625 C 10.085938 6.332031 9.644531 5.453125 9.9375 4.421875 C 10.082031 3.679688 10.265625 2.90625 10.484375 2.09375 C 10.710938 1.289062 10.898438 0.445312 11.046875 -0.4375 C 15.316406 -15.164062 19.734375 -29.894531 24.296875 -44.625 C 28.867188 -59.351562 33.953125 -73.9375 39.546875 -88.375 C 39.691406 -88.8125 39.875 -89.285156 40.09375 -89.796875 C 40.320312 -90.316406 40.507812 -90.800781 40.65625 -91.25 C 41.238281 -92.863281 40.570312 -93.820312 38.65625 -94.125 C 31.738281 -95.15625 24.960938 -95.335938 18.328125 -94.671875 C 11.703125 -94.003906 5.296875 -91.832031 -0.890625 -88.15625 C -1.617188 -87.707031 -2.390625 -87.300781 -3.203125 -86.9375 C -4.015625 -86.570312 -4.863281 -86.164062 -5.75 -85.71875 C -7.507812 -84.832031 -9.238281 -84.425781 -10.9375 -84.5 C -12.632812 -84.582031 -14.363281 -84.914062 -16.125 -85.5 C -18.78125 -86.238281 -19.222656 -87.640625 -17.453125 -89.703125 C -16.128906 -91.316406 -14.582031 -92.710938 -12.8125 -93.890625 C -4.125 -100.234375 5.519531 -103.769531 16.125 -104.5 C 20.101562 -104.789062 24.117188 -104.898438 28.171875 -104.828125 C 32.222656 -104.753906 36.3125 -104.351562 40.4375 -103.625 C 43.675781 -103.175781 45.882812 -104.425781 47.0625 -107.375 C 51.332031 -118.863281 55.785156 -130.238281 60.421875 -141.5 C 65.066406 -152.769531 69.375 -164.148438 73.34375 -175.640625 C 73.9375 -177.117188 74.378906 -178.519531 74.671875 -179.84375 C 75.847656 -183.375 76.804688 -185.472656 77.546875 -186.140625 C 78.285156 -186.804688 80.492188 -187.140625 84.171875 -187.140625 C 87.859375 -187.140625 90.398438 -187.097656 91.796875 -187.015625 C 93.191406 -186.941406 94.070312 -186.242188 94.4375 -184.921875 C 94.8125 -183.597656 95.144531 -181.019531 95.4375 -177.1875 C 96.46875 -164.96875 97.5 -152.78125 98.53125 -140.625 C 99.5625 -128.476562 100.59375 -116.363281 101.625 -104.28125 C 101.625 -103.84375 101.695312 -103.363281 101.84375 -102.84375 C 102 -102.332031 102.078125 -101.78125 102.078125 -101.1875 C 102.222656 -98.382812 103.84375 -96.910156 106.9375 -96.765625 C 110.320312 -96.765625 113.742188 -96.691406 117.203125 -96.546875 C 120.671875 -96.398438 124.097656 -96.472656 127.484375 -96.765625 C 128.660156 -96.910156 129.875 -96.984375 131.125 -96.984375 C 132.375 -96.984375 133.585938 -96.691406 134.765625 -96.109375 C 135.503906 -95.660156 136.128906 -95.21875 136.640625 -94.78125 C 137.160156 -94.34375 137.421875 -93.679688 137.421875 -92.796875 C 137.421875 -92.054688 137.160156 -91.5 136.640625 -91.125 C 136.128906 -90.757812 135.582031 -90.429688 135 -90.140625 C 134.257812 -89.703125 133.410156 -89.40625 132.453125 -89.25 C 131.492188 -89.101562 130.570312 -88.957031 129.6875 -88.8125 C 126.300781 -88.226562 122.875 -87.9375 119.40625 -87.9375 C 115.945312 -87.9375 112.523438 -88.007812 109.140625 -88.15625 C 106.640625 -88.15625 105.128906 -87.894531 104.609375 -87.375 C 104.097656 -86.863281 103.988281 -85.351562 104.28125 -82.84375 C 106.050781 -70.175781 108.003906 -57.546875 110.140625 -44.953125 C 112.273438 -32.367188 115.253906 -19.890625 119.078125 -7.515625 Z M 70.703125 -138.75 C 68.347656 -132.707031 66.023438 -126.703125 63.734375 -120.734375 C 61.453125 -114.773438 59.132812 -108.773438 56.78125 -102.734375 C 58.988281 -101.847656 61.085938 -101.296875 63.078125 -101.078125 C 65.066406 -100.859375 67.019531 -100.75 68.9375 -100.75 C 71 -100.601562 72.210938 -100.710938 72.578125 -101.078125 C 72.941406 -101.441406 73.050781 -102.726562 72.90625 -104.9375 C 72.46875 -109.800781 72.210938 -114.738281 72.140625 -119.75 C 72.066406 -124.757812 72.03125 -129.765625 72.03125 -134.765625 C 72.03125 -135.359375 72.066406 -136.019531 72.140625 -136.75 C 72.210938 -137.488281 71.734375 -138.15625 70.703125 -138.75 Z M 70.703125 -138.75 "/></g></g></g></svg>